<?xml version="1.0" standalone="no"?>
<!DOCTYPE svg PUBLIC "-//W3C//DTD SVG 20010904//EN"
 "http://www.w3.org/TR/2001/REC-SVG-20010904/DTD/svg10.dtd">
<svg version="1.0" xmlns="http://www.w3.org/2000/svg"
 width="700.000000pt" height="700.000000pt" viewBox="0 0 700.000000 700.000000"
 preserveAspectRatio="xMidYMid meet">
<metadata>
Created by potrace 1.11, written by Peter Selinger 2001-2013
</metadata>
<g transform="translate(0.000000,700.000000) scale(0.100000,-0.100000)"
fill="#000000" stroke="none">
<path d="M4625 6986 c-171 -56 -296 -206 -376 -451 -50 -152 -47 -385 6 -542
41 -119 128 -228 220 -273 66 -32 186 -33 255 -3 328 148 480 709 289 1072
-43 81 -143 181 -182 181 -7 0 -17 4 -23 10 -17 17 -145 21 -189 6z"/>
<path d="M3658 6698 c-157 -33 -281 -247 -281 -483 0 -160 44 -278 134 -359
127 -115 295 -76 404 93 168 260 103 657 -122 741 -55 20 -72 21 -135 8z"/>
<path d="M2865 6419 c-64 -39 -132 -143 -152 -230 -9 -41 -9 -213 0 -252 11
-50 63 -151 95 -184 117 -120 282 -78 358 93 96 217 35 491 -129 575 -47 25
-129 23 -172 -2z"/>
<path d="M2414 6074 c-5 -1 -20 -5 -34 -8 -80 -17 -138 -131 -134 -264 5 -179
130 -337 258 -326 81 8 153 104 163 218 14 166 -81 345 -199 372 -24 6 -48 9
-54 8z"/>
<path d="M2061 5623 c-41 -21 -87 -82 -102 -137 -19 -66 -14 -164 10 -220 93
-214 316 -113 313 141 -2 160 -114 270 -221 216z"/>
<path d="M3838 5366 c-1 -2 -37 -6 -78 -10 -110 -10 -158 -16 -225 -27 -33 -6
-71 -12 -85 -14 -105 -14 -490 -120 -525 -145 -5 -4 -21 -11 -35 -15 -49 -15
-256 -117 -330 -162 -230 -142 -411 -328 -519 -534 -54 -104 -98 -227 -115
-324 -3 -16 -8 -41 -11 -55 -10 -44 -18 -172 -18 -275 -1 -338 64 -640 211
-985 22 -52 106 -229 186 -394 80 -164 146 -300 146 -302 0 -2 12 -29 26 -61
100 -221 189 -534 208 -728 4 -33 8 -73 10 -90 3 -16 7 -102 11 -190 8 -195
17 -263 50 -380 99 -347 352 -600 660 -659 78 -15 313 -16 390 -1 17 3 55 10
85 16 77 14 175 47 242 80 286 140 425 401 433 814 3 161 -10 271 -45 384 -22
72 -81 204 -92 209 -5 2 -8 8 -8 14 0 28 -175 257 -317 415 -64 71 -81 92
-155 192 -43 57 -78 107 -78 112 0 4 -13 30 -28 56 -62 105 -104 272 -105 420
-1 141 9 227 39 332 70 242 193 404 539 706 252 219 315 287 404 435 129 212
160 496 80 737 -33 102 -104 200 -193 267 -86 66 -231 125 -341 141 -27 4 -59
10 -70 12 -23 6 -341 13 -347 9z"/>
</g>
</svg>
