<?xml version="1.0" standalone="no"?>
<!DOCTYPE svg PUBLIC "-//W3C//DTD SVG 20010904//EN"
 "http://www.w3.org/TR/2001/REC-SVG-20010904/DTD/svg10.dtd">
<svg version="1.0" xmlns="http://www.w3.org/2000/svg"
 width="128.000000pt" height="128.000000pt" viewBox="0 0 128.000000 128.000000"
 preserveAspectRatio="xMidYMid meet">
<metadata>
Created by potrace 1.11, written by Peter Selinger 2001-2013
</metadata>
<g transform="translate(0.000000,128.000000) scale(0.100000,-0.100000)"
fill="#000000" stroke="none">
<path d="M946 1171 c-55 -36 -73 -96 -34 -110 46 -17 124 33 132 84 9 48 -44
62 -98 26z"/>
<path d="M757 1062 c-52 -32 -65 -83 -54 -220 5 -73 -13 -193 -37 -244 -30
-62 -106 -121 -201 -155 -22 -8 -80 -18 -130 -22 -108 -10 -157 -31 -197 -87
-37 -51 -40 -109 -9 -152 27 -38 98 -73 131 -66 61 14 136 59 201 120 51 48
93 77 157 106 369 169 402 193 410 293 5 64 -10 115 -53 176 -29 41 -45 73
-51 104 -12 62 -31 104 -57 128 -17 15 -35 27 -41 28 -6 0 -18 2 -27 4 -9 1
-28 -5 -42 -13z"/>
<path d="M1037 1035 c-60 -31 -76 -85 -27 -85 50 0 100 57 78 88 -12 17 -15
17 -51 -3z"/>
<path d="M1041 921 c-52 -49 -33 -83 32 -56 35 14 64 56 53 74 -13 20 -53 11
-85 -18z"/>
<path d="M1097 834 c-42 -23 -60 -67 -31 -78 31 -12 94 35 87 64 -7 26 -24 30
-56 14z"/>
<path d="M1110 724 c-29 -15 -52 -43 -44 -55 9 -16 51 -9 77 11 42 33 15 69
-33 44z"/>
</g>
</svg>
